<!DOCTYPE svg PUBLIC "-//W3C//DTD SVG 1.1//EN" "http://www.w3.org/Graphics/SVG/1.1/DTD/svg11.dtd">
<!-- Uploaded to: SVG Repo, www.svgrepo.com, Transformed by: SVG Repo Mixer Tools -->
<svg width="179px" height="179px" viewBox="0 0 24 24" fill="none" xmlns="http://www.w3.org/2000/svg" stroke="#ffffff" transform="matrix(1, 0, 0, 1, 0, 0)">
<g id="SVGRepo_bgCarrier" stroke-width="0"/>
<g id="SVGRepo_tracerCarrier" stroke-linecap="round" stroke-linejoin="round"/>
<g id="SVGRepo_iconCarrier"> <path d="M5 4V20M19 7.329V16.671C19 17.7367 19 18.2696 18.7815 18.5432C18.5916 18.7812 18.3035 18.9197 17.9989 18.9194C17.6487 18.919 17.2327 18.5861 16.4005 17.9204L10.5617 13.2494C10.0279 12.8223 9.76097 12.6088 9.66433 12.3508C9.5796 12.1246 9.5796 11.8754 9.66433 11.6492C9.76097 11.3912 10.0279 11.1777 10.5617 10.7506L16.4005 6.07961C17.2327 5.41387 17.6487 5.081 17.9989 5.08063C18.3035 5.0803 18.5916 5.21876 18.7815 5.45677C19 5.73045 19 6.2633 19 7.329Z" stroke="#ffffff" stroke-width="2" stroke-linecap="round" stroke-linejoin="round"/> </g>
</svg>